<svg xmlns="http://www.w3.org/2000/svg" width="256" height="256" viewBox="0 0 100 100"><rect width="100" height="100" rx="20" fill="#b28cad"></rect><path fill="#2f3440" d="M78.71 23.95L78.71 23.95L71.69 23.95L71.69 76.87Q71.69 77.59 70.97 77.59L70.97 77.59Q70.52 77.59 70.16 77.14L70.16 77.14L29.93 25.57L29.93 76.87Q29.93 77.59 29.16 77.59Q28.40 77.59 28.40 76.87L28.40 76.87L28.40 23.95L21.38 23.95Q20.57 23.95 20.57 23.18Q20.57 22.42 21.38 22.42L21.38 22.42L28.85 22.42Q29.39 22.42 29.75 22.87L29.75 22.87L70.16 74.62L70.16 23.95L63.14 23.95Q62.33 23.95 62.33 23.18Q62.33 22.42 63.14 22.42L63.14 22.42L78.71 22.42Q79.43 22.42 79.43 23.18Q79.43 23.95 78.71 23.95Z"></path></svg>