<svg xmlns="http://www.w3.org/2000/svg" version="1.1" xmlns:xlink="http://www.w3.org/1999/xlink" xmlns:svgjs="http://svgjs.dev/svgjs" width="100%" height="100%" viewBox="0 0 1000 600"><rect width="1000" height="600" x="0" y="0" fill="#df678c"/><g><rect width="333.3333333333333" height="333.3333333333333" rx="13.333333333333334" ry="13.333333333333334" y="199.42895008790657" fill="#3d155f" transform="matrix(0.7053909081943599,0,0,0.70539090819436,0,41.75948313423767)" x="177.206787109375"/><path d="M297.019532642405 315.8708987940534L297.019532642405 435.5001122771995Q297.019532642405 437.92707856933436 295.0981843277983 439.51134823225567Q293.14312814802304 441.095617895177 290.4802067997084 441.095617895177Q287.8172854513938 441.095617895177 285.8622292716185 439.51134823225567Q283.9071730918432 437.92707856933436 283.9071730918432 435.5001122771995L283.9071730918432 435.5001122771995L283.9071730918432 302.52258418731185L270.55885848510167 302.52258418731185Q267.8959371367871 302.52258418731185 265.97458882218035 300.8034830637164Q264.01953264240507 299.1180898052894 264.01953264240507 296.6911235131546Q264.01953264240507 294.26415722101973 265.83975736150614 292.67988755809836Q267.6599820806073 291.09561789517704 270.55885848510167 291.09561789517704L270.55885848510167 291.09561789517704L289.50267870982077 291.09561789517704Q293.3790832042028 291.09561789517704 295.57009444015785 293.52258418731185L295.57009444015785 293.52258418731185L390.6936899457759 415.8484268839411L390.6936899457759 302.52258418731185L376.40155511431516 302.52258418731185Q373.9745888221803 302.52258418731185 372.390319159259 300.93831452439053Q370.8060494963376 299.35404486146916 370.8060494963376 296.92707856933436Q370.8060494963376 294.5001122771995 372.390319159259 292.8147190187725Q373.9745888221803 291.09561789517704 376.40155511431516 291.09561789517704L376.40155511431516 291.09561789517704L418.1318921929668 291.09561789517704Q420.55885848510167 291.09561789517704 422.14312814802304 292.8147190187725Q423.72739781094435 294.5001122771995 423.72739781094435 296.92707856933436Q423.72739781094435 299.35404486146916 422.14312814802304 300.93831452439053Q420.55885848510167 302.52258418731185 418.1318921929668 302.52258418731185L418.1318921929668 302.52258418731185L403.8060494963376 302.52258418731185L403.8060494963376 434.7922471086602Q403.8060494963376 441.095617895177 397.50267870982077 441.095617895177L397.50267870982077 441.095617895177Q394.0981843277983 441.095617895177 391.6712180356635 437.69112351315454L391.6712180356635 437.69112351315454L297.019532642405 315.8708987940534Z " fill="#b28cad" transform="matrix(0.7053909081943599,0,0,0.70539090819436,0,41.75948313423767)"/><path d="M620.7100823798658 339.258994313755L620.7100823798658 436.5451763540045Q620.7100823798658 438.51886052050156 619.1475824147221 439.8072376847427Q617.5576701694885 441.0956148489838 615.3921000423597 441.0956148489838Q613.2265299152311 441.0956148489838 611.6366176699973 439.8072376847427Q610.0467054247637 438.51886052050156 610.0467054247637 436.5451763540045L610.0467054247637 436.5451763540045L610.0467054247637 328.40373139802136L599.1914425090299 328.40373139802136Q597.0258723819013 328.40373139802136 595.4633724167578 327.0057051134193Q593.8734601715241 325.63509110890743 593.8734601715241 323.66140694241045Q593.8734601715241 321.6877227759134 595.3537232963969 320.39934561167223Q596.8339864212696 319.11096844743116 599.1914425090299 319.11096844743116L599.1914425090299 319.11096844743116L614.597143919743 319.11096844743116Q617.7495561301201 319.11096844743116 619.5313543359855 321.0846526139282L619.5313543359855 321.0846526139282L696.8888087506331 420.5638170613966L696.8888087506331 328.40373139802136L685.2660019923728 328.40373139802136Q683.2923178258757 328.40373139802136 682.0039406616346 327.11535423378024Q680.7155634973935 325.8269770695391 680.7155634973935 323.8532929030421Q680.7155634973935 321.87960873654504 682.0039406616346 320.5089947320332Q683.2923178258757 319.11096844743116 685.2660019923728 319.11096844743116L685.2660019923728 319.11096844743116L719.2024047440856 319.11096844743116Q721.1760889105826 319.11096844743116 722.4644660748238 320.5089947320332Q723.7528432390649 321.87960873654504 723.7528432390649 323.8532929030421Q723.7528432390649 325.8269770695391 722.4644660748238 327.11535423378024Q721.1760889105826 328.40373139802136 719.2024047440856 328.40373139802136L719.2024047440856 328.40373139802136L707.552185705735 328.40373139802136L707.552185705735 435.96951847210954Q707.552185705735 441.0956148489838 702.4260893288608 441.0956148489838L702.4260893288608 441.0956148489838Q699.657449039747 441.0956148489838 697.68376487325 438.32697455986994L697.68376487325 438.32697455986994L620.7100823798658 339.258994313755ZM795.9842012768381 395.7008790195521Q795.381131114853 385.03750206445005 789.7616136963545 378.73267764369564Q784.1420962778559 372.400440942851 773.588368443115 372.400440942851Q763.0072283282836 372.400440942851 755.9074477849124 378.81491448396633Q748.8076672415411 385.22938802508173 747.0258690356757 395.7008790195521L747.0258690356757 395.7008790195521L795.9842012768381 395.7008790195521ZM796.3679731981015 420.18004514013336L796.3679731981015 420.18004514013336Q797.7659994827036 417.79517677228273 799.5203854084787 417.79517677228273Q801.3021836143441 417.79517677228273 803.0839818202095 418.69978201526055Q804.8657800260748 419.57697497814814 805.5510870283307 421.4684223043744Q806.2363940305867 423.33245735051054 805.2495519473382 424.9223695957442L805.2495519473382 424.9223695957442Q795.1892451542212 441.0956148489838 773.2868333621224 441.0956148489838L773.2868333621224 441.0956148489838Q755.9074477849124 441.0956148489838 745.9567901121565 429.9388168522575Q735.9787201593103 418.78201885553125 735.9787201593103 401.8138174796748Q735.9787201593103 384.8456161038184 746.2309129130589 374.10000230844565Q756.5105179468976 363.3269762329827 773.2868333621224 363.3269762329827Q790.0631487773471 363.3269762329827 798.2594205243279 373.3872830260995Q806.4282799912183 383.47500209930655 806.4282799912183 400.2513175145313L806.4282799912183 400.2513175145313Q806.4282799912183 404.77434372942037 801.3021836143441 404.77434372942037L801.3021836143441 404.77434372942037L746.6420971144124 404.96622969005205Q747.4370532370292 417.21951889038775 754.6190706206712 424.6208345147516Q761.8285002844034 432.02215013911547 773.2868333621224 432.02215013911547L773.2868333621224 432.02215013911547Q788.665122492745 432.02215013911547 796.3679731981015 420.18004514013336ZM926.8230141475373 370.23487081572233L901.1651199830758 437.34013247662136Q899.7945059785641 441.0956148489838 895.9567867659309 441.0956148489838Q892.0916552732076 441.0956148489838 891.104813189959 437.53201843725304L891.104813189959 437.53201843725304L872.7659978095908 383.063817897953L854.3997701491323 437.53201843725304Q853.4129280658838 441.0956148489838 849.5752088532506 441.0956148489838Q845.7100773605273 441.0956148489838 844.3394633560155 437.53201843725304L844.3394633560155 437.53201843725304L818.4896832309224 370.23487081572233Q818.0784990295688 369.2480287324738 818.0784990295688 368.2611866492253L818.0784990295688 368.2611866492253Q818.0784990295688 365.30066039947974 821.6420954412996 363.9300463949679L821.6420954412996 363.9300463949679Q822.8208234851797 363.3269762329827 824.1914374896916 363.3269762329827L824.1914374896916 363.3269762329827Q827.371261980159 363.73816043433624 828.3581040634076 366.0956165220966L828.3581040634076 366.0956165220966L849.0817878116263 421.3587731840135L867.6124891526263 366.47938844335994Q868.5993312358748 363.3269762329827 872.6563486892298 363.3269762329827Q876.7133661425848 363.3269762329827 877.7002082258334 366.47938844335994L877.7002082258334 366.47938844335994L896.4502078075551 421.5506591446452L917.1738915557739 366.0956165220966Q918.3526195996542 363.1350902723511 920.2166546457902 363.1350902723511Q922.1081019720166 363.1350902723511 923.67060193716 363.9300463949679L923.67060193716 363.9300463949679Q927.2341983488907 365.30066039947974 927.2341983488907 368.2611866492253L927.2341983488907 368.2611866492253Q927.2341983488907 369.2480287324738 926.8230141475373 370.23487081572233L926.8230141475373 370.23487081572233ZM1028.4677487221343 436.5451763540045L1028.4677487221343 436.5451763540045L1028.4677487221343 328.40373139802136L989.4052495935473 328.40373139802136L989.4052495935473 340.05395043637185Q989.4052495935473 342.0276346028689 987.8153373483135 343.2885994870198Q986.2528373831701 344.5769766512609 984.0598549759511 344.5769766512609Q981.8942848488225 344.5769766512609 980.3317848836789 343.2885994870198Q978.7418726384453 342.0276346028689 978.7418726384453 340.05395043637185L978.7418726384453 340.05395043637185L978.7418726384453 323.8532929030421Q978.7418726384453 321.87960873654504 980.3317848836789 320.5089947320332Q981.8942848488225 319.11096844743116 983.8679690153195 319.11096844743116L983.8679690153195 319.11096844743116L1083.5390194234196 319.11096844743116Q1085.7045895505482 319.11096844743116 1087.294501795782 320.5089947320332Q1088.8844140410158 321.87960873654504 1088.8844140410158 323.8532929030421L1088.8844140410158 323.8532929030421L1088.8844140410158 340.05395043637185Q1088.8844140410158 342.0276346028689 1087.294501795782 343.2885994870198Q1085.7045895505482 344.5769766512609 1083.5390194234196 344.5769766512609Q1081.3734492962908 344.5769766512609 1079.783537051057 343.2885994870198Q1078.2210370859136 342.0276346028689 1078.2210370859136 340.05395043637185L1078.2210370859136 340.05395043637185L1078.2210370859136 328.40373139802136L1039.1311256772365 328.40373139802136L1039.1311256772365 436.5451763540045Q1039.1311256772365 438.51886052050156 1037.5686257120929 439.8072376847427Q1035.978713466859 441.0956148489838 1033.8131433397305 441.0956148489838Q1031.6475732126019 441.0956148489838 1030.057660967368 439.8072376847427Q1028.4677487221343 438.51886052050156 1028.4677487221343 436.5451763540045ZM1128.1387991302345 412.2853084741452L1128.1387991302345 408.5298261017828Q1115.1179660873722 404.96622969005205 1105.934852257143 404.96622969005205Q1096.7791507070037 404.96622969005205 1090.9403350477835 408.5298261017828Q1085.1289316686534 412.09342251351353 1085.1289316686534 418.50789605462893Q1085.1289316686534 424.9223695957442 1088.8844140410158 428.45855372738475Q1092.6124841332878 432.02215013911547 1099.1366067947642 432.02215013911547L1099.1366067947642 432.02215013911547Q1117.2835362145008 432.02215013911547 1128.1387991302345 412.2853084741452L1128.1387991302345 412.2853084741452ZM1143.9282724622108 429.8565800119868L1143.9282724622108 429.8565800119868L1151.6311231675672 429.8565800119868Q1153.6048073340644 429.8565800119868 1154.8931844983053 431.22719401649863Q1156.1815616625463 432.5978080210105 1156.1815616625463 434.57149218750754Q1156.1815616625463 436.5451763540045 1154.8931844983053 437.83355351824565Q1153.6048073340644 439.1219306824868 1151.6311231675672 439.1219306824868L1151.6311231675672 439.1219306824868L1142.9414303789622 439.1219306824868Q1135.841649835591 439.1219306824868 1132.0039306229578 435.96951847210954Q1128.1387991302345 432.81710626173236 1128.1387991302345 427.08793972287293L1128.1387991302345 427.08793972287293Q1128.1387991302345 426.1010976396244 1128.3580973709563 424.9223695957442L1128.3580973709563 424.9223695957442Q1117.886606376486 441.0956148489838 1097.957878750884 441.0956148489838L1097.957878750884 441.0956148489838Q1086.9107298745187 441.0956148489838 1080.688142294035 435.1745623494927Q1074.4655547135512 429.25350985000165 1074.4655547135512 418.69978201526055Q1074.4655547135512 408.14605418051946 1082.8537124211637 402.1153525606674Q1091.241870128776 396.0846509408154 1103.769282130014 396.0846509408154Q1116.2966941312523 396.0846509408154 1128.1387991302345 400.2513175145313L1128.1387991302345 400.2513175145313L1128.1387991302345 386.6274143096838Q1128.1387991302345 377.1427653984619 1121.230904547495 374.37412510934803L1121.230904547495 374.37412510934803Q1115.9129222099891 372.400440942851 1106.537922419128 372.400440942851Q1097.162922628267 372.400440942851 1089.268185962279 375.58026543331846L1089.268185962279 375.58026543331846L1089.268185962279 387.9980283141956Q1089.268185962279 389.97171248069264 1087.6782737170454 391.26008964493377Q1086.1157737519018 392.5484668091749 1083.9502036247732 392.5484668091749Q1081.7572212175542 392.5484668091749 1080.1947212524108 391.26008964493377Q1078.604809007177 389.97171248069264 1078.604809007177 387.9980283141956L1078.604809007177 387.9980283141956L1078.604809007177 373.0035111048362Q1078.604809007177 370.42675677635395 1081.1815633356591 369.05614277184213L1081.1815633356591 369.05614277184213Q1090.8580982075127 363.3269762329827 1106.8394575001207 363.3269762329827Q1122.8208167927287 363.3269762329827 1130.7155534587168 368.5627217302179Q1138.610290124705 373.79846722745305 1138.610290124705 386.6274143096838L1138.610290124705 386.6274143096838L1138.610290124705 426.1010976396244Q1138.610290124705 429.8565800119868 1143.9282724622108 429.8565800119868ZM1178.8789295772622 390.7666686033095L1178.8789295772622 420.18004514013336Q1191.8997626201246 432.02215013911547 1204.235288660731 432.02215013911547Q1216.5708147013374 432.02215013911547 1223.2868233234456 423.71622927177384Q1230.0028319455535 415.4377206845224 1230.0028319455535 401.8138174796748Q1230.0028319455535 388.18991427482723 1223.3690601637163 380.29517760883914Q1216.7627006619691 372.400440942851 1205.3317798643407 372.400440942851L1205.3317798643407 372.400440942851Q1189.1311223310108 372.400440942851 1178.8789295772622 390.7666686033095L1178.8789295772622 390.7666686033095ZM1168.2155526221604 436.5451763540045L1168.2155526221604 300.36096886570937L1155.1947195792977 300.36096886570937Q1153.221035412801 300.36096886570937 1151.9326582485596 299.1000039815585Q1150.6442810843187 297.81162681731735 1150.6442810843187 295.8379426508203Q1150.6442810843187 293.8642584843233 1151.9326582485596 292.4662321997212Q1153.221035412801 291.0956181952094 1155.1947195792977 291.0956181952094L1155.1947195792977 291.0956181952094L1173.5335349596662 291.0956181952094Q1175.5072191261634 291.0956181952094 1177.2067804917579 292.4662321997212Q1178.8789295772622 293.8642584843233 1178.8789295772622 295.8379426508203L1178.8789295772622 295.8379426508203L1178.8789295772622 378.3214934423421Q1188.9392363703791 363.3269762329827 1205.7155517856038 363.3269762329827Q1222.4918672008284 363.3269762329827 1231.4830950704263 373.9903531880847Q1240.4469106599336 384.6537301431867 1240.4469106599336 402.0057034403065Q1240.4469106599336 419.38508901751646 1231.1815599894337 430.2403519332501Q1221.8887970388434 441.0956148489838 1206.510507908221 441.0956148489838Q1191.104806497508 441.0956148489838 1178.8789295772622 429.8565800119868L1178.8789295772622 429.8565800119868L1178.8789295772622 436.5451763540045Q1178.8789295772622 438.51886052050156 1177.2890173320286 439.8072376847427Q1175.7265173668852 441.0956148489838 1173.5335349596662 441.0956148489838Q1171.3679648325374 441.0956148489838 1169.805464867394 439.8072376847427Q1168.2155526221604 438.51886052050156 1168.2155526221604 436.5451763540045L1168.2155526221604 436.5451763540045Z " fill="#3d155f" transform="matrix(0.7053909081943599,0,0,0.70539090819436,0,41.75948313423767)"/></g></svg>